<svg xmlns="http://www.w3.org/2000/svg" viewBox="0 0 100 100">
  <circle cx="50" cy="50" r="40" fill="#cc2200"/>
  <circle cx="50" cy="50" r="18" fill="#3a1f00"/>
  <circle cx="50" cy="50" r="12" fill="transparent"/>
  <ellipse cx="30" cy="38" rx="8" ry="5" fill="#ff69b4" transform="rotate(-20 30 38)"/>
  <ellipse cx="68" cy="35" rx="6" ry="4" fill="#ff69b4" transform="rotate(15 68 35)"/>
  <ellipse cx="72" cy="62" rx="7" ry="4" fill="#ff69b4" transform="rotate(-10 72 62)"/>
  <ellipse cx="35" cy="68" rx="6" ry="4" fill="#ff69b4" transform="rotate(20 35 68)"/>
  <circle cx="28" cy="36" r="2" fill="#ffd500"/>
  <circle cx="34" cy="33" r="1.5" fill="#fff"/>
  <circle cx="70" cy="33" r="2" fill="#ffd500"/>
  <circle cx="65" cy="37" r="1.5" fill="#fff"/>
  <circle cx="74" cy="64" r="2" fill="#ffd500"/>
  <circle cx="68" cy="60" r="1.5" fill="#fff"/>
  <circle cx="33" cy="70" r="2" fill="#ffd500"/>
  <circle cx="38" cy="66" r="1.5" fill="#fff"/>
</svg>